<svg xmlns="http://www.w3.org/2000/svg" xmlns:xlink="http://www.w3.org/1999/xlink" width="236" height="44.8" viewBox="0 0 295 55.8"><path fill="#FFF" d="M27.9 24.9c.9.3 1.5.9 2.1 1.5.5.5.9 1 1.5 1.2h.2c.6-.2 1-.6 1.5-1.2s1.1-1.2 2-1.5c.2-.1.3-.1.3-.1.8.1 1.4.4 1.7.7-.6 0-1.4.3-2 1.1-.3-.2-.7-.2-1-.1-.5.1-.9.6-1 1.1-.1.4 0 .7.2 1-.7.6-1.4 1-1.8 1.1-.4 0-1.1-.5-1.8-1.1.2-.3.3-.7.2-1-.1-.5-.5-1-1-1.1-.3-.1-.7-.1-1 .1-.6-.8-1.4-1-2-1.1.3-.3.9-.7 1.7-.7l.2.1zM31.4 30.3c.1 0 .1 0 0 0zM35 13.8c.3.1.6.2.9.2.6.2.9.8.8 1.2-.1.3-.4.4-.8.4-.5-.5-.4-1.3-1-1.8h.1zM35.3 17.1v.8c-.2-.4-.8-1.3-2-1.7.9.6 1.3 1.7 1.5 2.3-.1 0-.2.1-.3.1-.1-.1-.3-.1-.4-.2-1.4.1-2.4.7-2.4.7s-1-.6-2.4-.7c-.2.1-.3.1-.4.2-.1 0-.2-.1-.3-.1.2-.7.6-1.7 1.5-2.3-1.2.5-1.8 1.3-2 1.7-.1-.2-.1-.4 0-.8.5-.7 1.1-1.2 2.1-1.4.4-.1.8-.1 1.3-.1 0 .4.1 1.8.3 3.2v.1c.2-1.4.3-2.8.3-3.2.5 0 .9.1 1.3.1.7.1 1.4.6 1.9 1.3zM33.3 13.5c.7.5.7 1.4 1.1 1.8-.3-.1-.5-.1-.8-.1-.2 0-.5-.1-.7-.1-.6-.5-.6-1.2-1.4-1.7h.2c.4 0 1 0 1.6.1zM30 13.5c.7.4 1 1.1 1.3 1.5-.5 0-1 .1-1.4.1-.6-.3-.8-1-1.6-1.4.6-.1 1.1-.2 1.7-.2zM26.6 15.2c-.1-.3.1-.8.5-1.1.7.3 1 .9 1.4 1.2-.3.1-.7.1-1.1.2-.5.2-.8 0-.8-.3z"/><path fill="#FFF" d="M23.2 35.1c.1 0 .4.1.6 0 .1 0 .2-.1.2-.2-.5 0-.7-.1-.8-.2V32h.5c.1 0 .2-.1.2-.2-.4 0-.6-.1-.7-.1V30c0-.5.6-.6 1-.6h5V36H29c-.3.1-.5.4-.7.7h-.2c-.2-.3-.5-.8-.8-1.2v-4c.3-.4.5-.8.8-1.2h.2v5.8c.1-.2.3-.3.5-.5v-5.9h-4.7c-.2 0-.6 0-.6.3 0 .4.5.3.5.3.2.3.5.8.8 1.2v4c-.3.4-.6.8-.8 1.2-.3.2-.8 0-.8-.5v-.1-.1-.9zm3.7-3.5v3.7h-1.7v-3.7h1.7zm-1.7-.3c-.2-.3-.4-.7-.6-.9h3.1l-.6.9h-1.9zm-.7 5.4c.2-.3.4-.7.7-1H27c.2.3.4.7.7 1h-3.2zm-2.5-.5v1.4c0 1.2.4 2.6 1.1 3.9l7.4-5.4v-6.4c-.5-.3-.9-.6-1.3-1H29l.2-.2c.3-.3.3-.5.2-.7-.1-.3-.3-.6-.6-.7-.3-.1-.5 0-.7.2l-.3.3-.2-.3c-.2-.3-.4-.6-.6-.7h-5V35c.1 0 .4.1.7.3-.4 0-.6.4-.7.9zM32.9 44.4h-.5c.1-.6.3-1.1.6-1.6 0 0 .1-.1-.1-.2-.1-.1-.2 0-.2 0-.3.5-.5 1.1-.6 1.7h-.4v-1.9s0-.1-.1-.1-.1.1-.1.1v1.9h-.4c-.1-.6-.3-1.2-.6-1.7 0 0 0-.1-.2 0-.1.1-.1.2-.1.2.3.5.5 1 .6 1.6h-.5c-.3-.9-1.2-1.3-2.5-1.5.6-.7 1.6-.4 1.6-.4s-.7-.6-.8-1.4c.8-.1 1.5.5 1.5.5s-.4-.8-.1-1.6c.8.2 1.2 1.1 1.2 1.1s-.1-1 .5-1.5c.6.5.5 1.5.5 1.5s.3-.9 1.2-1.1c.2.8-.1 1.6-.1 1.6s.7-.6 1.5-.5c0 .8-.8 1.4-.8 1.4s1-.3 1.6.4c-1.5.2-2.4.7-2.7 1.5zM30 45c0-.1.2-.2.5-.2h2c.3 0 .5.1.5.2s-.2.2-.5.2h-2.1c-.1 0-.4-.1-.4-.2zm.5.5h2c.3 0 .5.1.5.2s-.2.2-.5.2h-2.1c-.3 0-.5-.1-.5-.2.1-.1.4-.2.6-.2zm2.6 3c0 .4-.5.6-.9.4-.1.5-.6.4-.6.4s-.5.1-.6-.4c-.4.3-.8 0-.8-.4-.3.2-.5-.1-.4-.3.4-.7.5-1.1.7-1.9h.5c0 .7-.1 1.4-.3 2 0 0-.1.2 0 .3.1 0 .2 0 .3-.2.2-.4.3-1.3.3-2.1h.3v2.5s0 .1.2.1.1-.1.1-.1v-1.5-1.1h.1c0 .9.1 1.7.3 2.1.1.2.2.3.3.2.2-.1 0-.3 0-.3-.2-.6-.3-1.3-.3-2h.5c.1.9.3 1.3.7 1.9 0 .3-.1.6-.4.4zm-1.5-10.3l-7.4 5.4c2.1 3.2 5.2 6.2 7.4 7.2 2.2-1 5.3-4 7.4-7.2l-7.4-5.4zM31.5 30.3zM40 36h-.2c-.3.1-.5.4-.7.7h-.2c-.2-.3-.5-.8-.8-1.2v-4c.3-.4.5-.8.8-1.2h.2v5.8c.1-.2.3-.3.5-.5v-5.9h-4.7c-.2 0-.6 0-.6.3 0 .4.5.3.5.3.2.3.5.8.8 1.2v4c-.3.4-.6.8-.8 1.2-.3.2-.8 0-.8-.5v-.1-.1-.8c.1 0 .4.1.6 0 .1 0 .2-.1.2-.2-.5 0-.7-.1-.8-.2v-2.7h.5c.1 0 .2-.1.2-.2-.4 0-.6-.1-.7-.1v-1.7c0-.5.6-.6 1-.6h5V36zm-2.2-4.4v3.7H36v-3.7h1.8zm-1.8-.3c-.2-.3-.4-.7-.6-.9h3.1l-.6.9H36zm-.7 5.4c.2-.3.4-.7.7-1h1.8c.2.3.4.7.7 1h-3.2zm5.9.9v-1.4c-.2-.5-.4-1-.7-1.1.3-.2.6-.3.7-.3v-5.9-2.5h-5c-.2.2-.5.4-.6.7l-.2.3-.3-.3c-.2-.1-.4-.1-.7-.1-.3.1-.6.4-.6.7 0 .2 0 .5.2.7l.2.2-.2.3c-.4.4-.8.7-1.3 1v6.4l7.4 5.4c.7-1.5 1.1-2.9 1.1-4.1zM18 16.4c.8.7.6 1.2.5 1.4l-.2.4c.7.2 2.1.1 3.2.2 0 0 .1.1 0 .2h-.9c-.2.3-.4.6-.9.7.7.4 1.5.1 1.7-.3.3.4 1 .7 1.7.3-1.2-.4-1.1-1.5-1.1-2.6.3 0 .5-.2.5-.5s-.2-.5-.5-.5c.1-1.5 1.5-1.3 2.2-1.1-.5-1.4-2.2-1-2.2-1s.2-1.9-.7-2.5c-.9.7-.7 2.5-.7 2.5s-1.7-.4-2.2 1c.6-.2 2-.4 2.2 1.1-.3 0-.5.2-.5.5s.2.5.5.5v.8c-.6-.2-1.2-.6-1.3-.8.2-.5-.5-1.4-1.3-.3zM4.4 22.5c-.4-.8-.3-1.6.2-2.2.5-.7 2-1.3 3-1.4 0 .6 0 1.2.2 1.7-1-.1-2.9.2-3.4 1.9zM11.6 21.2c-1-.8-1.4-1.7-1.4-2.4.9.1 1.8.4 2.6.8 0 .1.1.2.1.3-.4-.1-.9-.1-1.5-.1.6.1 1.2.4 1.7.5.1.1.1.2.2.3-.4-.1-1-.2-1.5-.1.6.1 1.3.3 1.8.5l.3.3c-.3-.1-.9-.2-1.4-.2.8.2 1.7.6 2 .7.5.4 1.1.7 1.9.9-1.3-.2-3-.8-4.7-1.4l-.1-.1z"/><path fill="#FFF" d="M4.1 19.9c-1.8 1.9-.8 3.8.3 5.1 1.1 1.3 1.7 4-.5 5.5 4.3-1.1 2.8-5.2 2.8-5.2s2.2-1.1 1.1-3.1c.1.8-1 1.5-2.3 1.4-1.3-.1-2.4-2-1.4-3.7zM16.3 16.2c-.2 0-.3-.1-.3-.3 0-.1.1-.3.3-.3.2 0 .3.1.3.3 0 .2-.1.3-.3.3z"/><defs><path id="a" d="M0 0h295v55.8H0z"/></defs><clipPath id="b"><use xlink:href="#a" overflow="visible"/></clipPath><path clip-path="url(#b)" fill="#FFF" d="M16.9 34.2c-.7 2.3-2.7 3.3-2.7 3.3s1.7-2.1 2.7-3.3zM-.1 46.7c3.2-.1 7.6-3.1 8.6-3.8.2-.4 0-.8 0-.8s-4 3.5-8.6 4.6z"/><path fill="#FFF" d="M23.5 22c-.2.9-1.5 2.5-3.4 2.8 4.1.8 5.1-1.9 6.2-4.3 0 .5 0 1.9-1 3.5.8-.4 2-1.1 2.1-2.2-.3.5-.6.8-1 1.1.4-.8.6-1.9.1-3.6-.6 1.1-1.2 3-2.7 4 .6-1 .7-1.9.9-2.8-.8.7-2.1 1.8-4.2 2 4.2-2 4.5-4.2 6.6-6.3-.3.1-.6.5-.8.6-1.3 1.2-2.3 2.7-3.6 3.5-2.4 1.5-6.1.7-7.7-.2-1-.6-1.7-1.4-1.8-3-1 3.2 4.2 8.6 10.3 4.9zM30.5 1.3c.2-.2.4-.3.6-.1l-.1.1c-.2.4-.5.2-.5 0zm-.2.8c-.1-.2-.3-.4-.3-.4s.2-.3.3-.3c.1 0 .3.3.3.3s-.1.2-.3.4zm-.6-.8l-.1-.1c.1-.2.4-.1.5.1 0 .1-.3.4-.4 0zm4.4 6.2c-.1-.3-.3-.6-.3-.6s-2-1.8-2.2-2.9c.8.8 1.8 1.8 2.2 2.1-.6-1.7-1.2-3-2.2-3.6-.1-.1-.3-.2-.3-.4s0-1.1-.3-1.5c-.1-.1-.4-.2-.7-.2-.2 0-.6 0-.8.2-.4.4-.4 1.2-.3 1.7-.9 1.7.1 3.1 1.8 3.9v-.6c-.4-.3-.9-1.7-.2-2.4-.2 1.5 1.9 3.4 3.3 4.3zM21.3 25.8H25s.2-.2.3-.4h-4.4v7.9c-.2.4-.2 1.2-.5 1.6-.3.4.2 1.5-.4 2.5-.4.7-.6.9-2.3 1.1-.5 0-1.2 0-1.4-.7-.3.6-.2 1.2-.1 1.7-1.1.4-1.8.8-2.6.8.1.2.3.5.8.4 2.8-.9 4.1-1 5-1.1.1-.5 1.3-.6 1.7-1.1 0-.7.1-1.4.1-2.2.1-.5.2-.9.4-1.2-.4-.1-.6 0-.7.1-.2.1 0-1.7.6-2.1-.1-.2-.3-.2-.5-.2.3-2 .3-4.5.3-7.1zM27.9 3.7c0 .2-.1.3-.3.3-.2 0-.3-.1-.3-.3 0-.2.1-.3.3-.3.2 0 .3.1.3.3z"/><path fill="#FFF" d="M31.6 22.1s-1.8-1.3-3.8-2.1c1.8-.1 3.8 1.4 3.8 1.4s2-1.4 3.8-1.4c-2 .8-3.8 2.1-3.8 2.1zm4.3-3.9c-.1.5-.5.9-.6.9h-.1c-.1 0-.2 0-.3.1-.3.1-.6.2-.7.2-1.6.5-2.7 1-2.7 1s-1.1-.6-2.7-1c-.1 0-.4-.1-.7-.2-.1 0-.2 0-.3-.1h-.1c-.1 0-.5-.4-.6-.9.1 1.3.3 2.5.5 3.5.2 1.2.4 2 .3 2.7.4.1.7.3 1 .4 0-.6-.1-1.9-.4-3.5.9.8 1.1 3.2 1.1 4 .3.2.5.5.8.8.4.5.8.9 1.2 1 .4-.1.8-.5 1.2-1 .2-.3.5-.5.8-.8 0-.8.2-3.2 1.1-4-.3 1.7-.4 3-.4 3.5.3-.2.6-.3 1-.4-.1-.6.1-1.5.3-2.7 0-1 .2-2.3.3-3.5zM31.8 30.3c-.1 0-.1 0 0 0zM31.7 30.3zM45.2 16.4c-.8.7-.6 1.2-.5 1.4l.2.4c-.7.2-2.1.1-3.2.2 0 0-.1.1 0 .2h.9c.2.3.4.6.9.7-.7.4-1.5.1-1.7-.3-.3.4-1 .7-1.7.3 1.2-.4 1.1-1.5 1.1-2.6-.3 0-.5-.2-.5-.5s.2-.5.5-.5c-.1-1.5-1.5-1.3-2.2-1.1.5-1.4 2.2-1 2.2-1s-.2-1.9.7-2.5c.9.6.7 2.5.7 2.5s1.7-.4 2.2 1c-.6-.2-2-.4-2.2 1.1.3 0 .5.2.5.5s-.2.5-.5.5v.8c.6-.2 1.2-.6 1.3-.8-.2-.5.5-1.4 1.3-.3zM58.8 22.5c.4-.8.3-1.6-.2-2.2-.5-.7-2-1.3-3-1.4 0 .6 0 1.2-.2 1.7 1-.1 2.9.2 3.4 1.9zM51.6 21.2c1-.8 1.4-1.7 1.4-2.4-.9.1-1.8.4-2.6.8 0 .1-.1.2-.1.3.4-.1.9-.1 1.5-.1-.6.1-1.2.4-1.7.5-.1.1-.1.2-.2.3.4-.1 1-.2 1.5-.1-.6.1-1.3.3-1.8.5l-.3.3c.3-.1.9-.2 1.4-.2-.8.2-1.7.6-2 .7-.5.4-1.1.7-1.9.9 1.3-.2 3-.8 4.7-1.4l.1-.1zM19 9.4c.2-.4.3-1.4-.5-2.1.2.4.4.9-.1 1.8.2-1-.2-2.2-.8-2.2.2.3.5.8.1 1.8.3-1.3-.8-2.6-2.1-1.5 1 0 1.3.5 1.3 1 0 1.1-.8 2.1-1.7 3-.7-.5-1.4-1.7-.4-3.5 1.4-2.3 3.5-1.3 4.2-.7-.4-.6-1-1.1-1.9-1.2-1.7-.3-3.9-.2-5.3-.2-2.8 0-2.7-3-1.5-3.6-2.9.8-2.4 3.4-1.9 3.9-.8.1-1.6.4-2.1 1.9 1.2-.8 3.4-.7 4.4-.3-2.3.8-3.1 1.4-5.4 2.8-1.7 1-3.4-1.1-1.6-2.3-.2.8.3 2 1.2 2.1-1-.4-1-2.3-.7-2.9-2.3.8-2 3.2-1 3.7s3 .3 3.1 1.1c2.5-.1 4.3-3.4 7-4.1-1.8 2-2.3 5.1-6.2 6.3 3.4.7 5.7-1.8 6.3-3 .5.6 1.8.9 2.3.5.1 0 .2.1.2.1-.3.2-.8.5-1.4.4-.7.7-1.8 1.8-1.8 2.8.2 0 .4-.1.6-.1 2.2-3.2 7.8-3.5 8.4-6.3-.5.5-2.5 1-2.7.8zM59 7.2c.3.5.3 2.4-.7 2.9 1 0 1.4-1.2 1.2-2.2 1.8 1.2.1 3.3-1.6 2.3-2.3-1.4-3.1-2-5.4-2.8 1-.3 3.2-.5 4.4.3-.5-1.5-1.3-1.8-2.1-1.9.5-.5 1-3.1-1.9-3.9 1.2.6 1.3 3.6-1.5 3.7-1.5 0-3.6-.1-5.3.2-.9.2-1.5.6-1.9 1.2.7-.6 2.8-1.6 4.2.7 1 1.7.3 2.9-.4 3.5-1-.9-1.8-1.8-1.7-3 0-.5.4-.9 1.3-1-1.3-1.1-2.4.2-2.1 1.5-.4-1 0-1.6.1-1.8-.6 0-1 1.1-.8 2.2-.4-.8-.3-1.4-.1-1.8-.8.7-.7 1.7-.5 2.1-.3.2-2.2-.3-2.7-1 .5 2.8 6.2 3.1 8.4 6.3.2 0 .4 0 .6.1 0-1-1.1-2.1-1.8-2.8-.7.1-1.2-.2-1.4-.4.1 0 .1 0 .2-.1.4.4 1.7.2 2.3-.5.6 1.2 2.9 3.8 6.3 3.1-3.9-1.2-4.4-4.3-6.2-6.3 2.7.8 4.5 4.1 7 4.1.1-.8 2.1-.6 3.1-1.1 1-.4 1.3-2.8-1-3.6z"/><path fill="#FFF" d="M59.1 19.9c1.8 1.9.8 3.8-.3 5.1-1.1 1.3-1.7 4 .5 5.5-4.3-1.1-2.8-5.2-2.8-5.2s-2.2-1.1-1.1-3.1c-.1.8 1 1.5 2.3 1.4 1.3-.1 2.4-2 1.4-3.7zM46.9 16.2c.2 0 .3-.1.3-.3 0-.1-.1-.3-.3-.3-.2 0-.3.1-.3.3 0 .2.1.3.3.3zM46.3 34.2c.7 2.3 2.7 3.3 2.7 3.3s-1.7-2.1-2.7-3.3zM63.3 46.7c-3.6-.1-8.8-3.9-8.8-3.9l.2-.7c-.1 0 4 3.5 8.6 4.6zM39.7 22c.2.9 1.5 2.5 3.4 2.8-4.1.8-5.1-1.9-6.2-4.3 0 .5 0 1.9 1 3.5-.8-.4-2-1.1-2.1-2.2.3.5.6.8 1 1.1-.4-.8-.6-1.9-.1-3.6.6 1.1 1.2 3 2.7 4-.6-1-.7-1.9-.9-2.8.8.7 2.1 1.8 4.2 2-4.2-2-4.5-4.2-6.6-6.3.3.1.6.5.8.6 1.3 1.2 2.3 2.7 3.6 3.5 2.4 1.5 6.1.7 7.7-.2 1-.6 1.7-1.4 1.8-3 1 3.2-4.2 8.6-10.3 4.9z"/><path fill="#FFF" d="M46.9 39.5c.2-.5.2-1.1-.1-1.7-.2.7-.9.7-1.4.7-1.7-.1-1.9-.4-2.3-1.1-.6-1.1-.1-2.1-.4-2.5-.3-.4-.3-1.1-.5-1.6v-7.9h-4.4c.1.2.3.4.3.4h3.7v7.1c-.2 0-.4 0-.5.2.6.4.8 2.2.6 2.1-.2-.1-.4-.2-.7-.1.2.3.3.7.4 1.2.1.8.1 1.5.1 2.2.4.5 1.6.6 1.7 1.1 1 .1 2.3.1 5 1.1.5.1.7-.2.8-.4-.5-.1-1.2-.5-2.3-.8z"/><path fill="#FFF" d="M57 52.5c-.1.2-.2.8-.3 1.2v.3c-.2 0-.5.1-.7.2.1-.3.2-.8.3-1.2l-1 1-.3-1.4c-.1.3-.2.6-.2.8v.2c-.1 0-.3.1-.5.1.1-.3.4-1.6.5-1.8 0-.1-.1-.3-.1-.3.1-.1.3-.2.4-.3.1.1.1.2.2.3.1.2.2 1 .4 1.5.3-.4.6-.6.7-.8.1-.1.1-.2 0-.3.1-.1.3-.2.4-.3.1.2.3.4.2.8zm-3 .9h-.6v-.6l-.8-.4c-.2.2-.4.3-.4.3l-.4-.2 2-1.8v1.8c.3.1.4 0 .5-.1 0 .1-.2.4-.5.4.1.4.1.5.2.6zm-2.9-1.1c.2-.4.8-1.3.9-1.6.1-.1 0-.3 0-.3.2-.1.3-.1.5-.2.1.1.2.4 0 .7-.1.2-.4.7-.6 1.1-.1.2-.1.2 0 .3-.2.1-.5 0-.8 0zm-.6-1c-.1.2-.1.2 0 .3h-.7c.2-.4.8-1.4.9-1.7.1-.1 0-.3-.1-.3-.1-.1-.2-.1-.3-.2-.2-.1-.3-.1-.4-.1.1-.1.5-.2.6-.2.3.2 1.5.8 1.7 1-.2.1-.4.1-.6.2 0-.1 0-.1-.2-.2 0 0-.1-.1-.3-.2 0 .1 0 .2-.1.3 0 .1-.3.7-.5 1.1zm-1.6-.4h-.5s-.1-1.2-.2-1.9c-.2.3-.5.8-.5.9-.1.1 0 .2 0 .2h-.5c.2-.3.8-1.4 1-1.6.1-.1 0-.3 0-.3.2-.1.3-.1.5-.2.2.3.4 2.1.4 2.1.3-.4.5-.9.6-1 .1-.1 0-.2 0-.2.1 0 .2-.1.4-.1 0 .1.1.3 0 .5-.1.1-.6 1.1-.8 1.4-.4.1-.4.1-.4.2zm-3.4-1.8c.2-.4.7-1.3.9-1.6.1-.1 0-.3 0-.3.2-.1.4-.1.5-.2.5.3.7.4 1.2.7-.2.1-.4.1-.6.2 0-.1 0-.1-.2-.2l-.4-.2c0 .1 0 .2-.1.3 0 0-.1.2-.2.3.3.1.7.4.8.4-.2.1-.4.1-.6.2 0-.1 0-.1-.2-.2-.1 0-.1-.1-.2-.1-.1.2-.2.4-.4.6.2.1.3.2.5.3 0 0 .2.1.3 0v.5c-.2-.1-1.1-.6-1.3-.7zm-.2-.4h-.7c.2-.4.7-1.3.9-1.6.1-.1 0-.3 0-.3.2-.1.3-.1.5-.2.1.1.2.4 0 .7-.1.2-.4.7-.6 1.1-.1.2-.1.3-.1.3zm-1.6-1.5c0 .1-.1.2-.2.3-.1.2-.1.2 0 .3h-.7c.2-.4.7-1.4.8-1.7.1-.1 0-.3-.1-.3.2-.1.3-.1.5-.2.3.1.4.2.7.3 1.1.6.4 2.3-1 1.3zm-1 .2c-.3 0-.4 0-.6.1v-.6c-.2-.1-.6-.3-.8-.3-.3.2-.4.4-.4.4l-.4-.2 1.9-1.9s.1 1.2.1 1.8c.3 0 .4-.1.4-.1 0 .1-.2.4-.4.4.1.2.1.4.2.4zm-3.3-.7c-.3-.1-.5-.3-.6-.6l.5-.1c-.1.1 0 .3.2.4.2.1.4 0 .5-.2.1-.2-.1-.3-.3-.5-.3-.2-.4-.5-.4-.7.1-.2.3-.4.4-.6.2-.1.5-.1.8 0 .3.1.5.3.6.4l-.4.2c0-.1 0-.3-.2-.4-.3-.1-.5 0-.5.1-.1.2.1.3.3.6.3.3.5.5.3.9-.2.5-.6.7-1.2.5zm9.3.9c-.1 0-.1 0 0 0-.1 0 0 0 0 0zM47 45.7c.8.5 2.6.8 3 1.1.3.3-1 0-1.3.4-.1.1-.2.2-.2.3-.2-.2-.2-.3-.2-.4-.4-.2-.8-.5-1-.3-.1-.2-.1-.4-.1-.4-.3-.2-.7-.4-1-.6.1-.2.5-.3.8-.1zm-14.5 6.6c-.2.2-.3.3-.4.5 0-.1-.1-.1-.3-.1h-.5c0 .1.1.2.1.3v.4h.9c-.2.2-.3.3-.4.5 0-.1-.1-.1-.3-.1h-.3v.7h.5c.1 0 .2 0 .3-.1.1.1.2.3.3.5h-1.6v-1.8c0-.2-.1-.2-.2-.2.1-.1.3-.3.3-.4.7-.2 1-.2 1.6-.2zm.4 0h.8c1 0 1.2 1.3.2 1.5.2.3.3.4.5.6.3.3.6.2.7.1-.2.2-.6.5-1 .3-.2-.1-.5-.4-.8-1v.5c0 .2.1.2.1.3l-.6.3V53c0-.2-.1-.2-.2-.2.1-.2.2-.3.3-.5zm2.7 1.1c.4 0 .5.3.8.3.2 0 .4 0 .6-.2-.1.2-.3.5-.7.5-.4 0-.5-.3-.8-.3-.1 0-.3 0-.6.2.1-.2.2-.5.7-.5zm-6.3.5v.4c0 .2.1.2.1.3l-.6.3V53c0-.2-.1-.2-.2-.2.1-.1.2-.3.3-.4h.8c1.2-.1 1.3 1.8-.4 1.5zm-1.8 0c-.4 0-.5-.3-.8-.3-.1 0-.3 0-.6.2 0-.1.2-.5.7-.5.4 0 .5.3.8.3.2 0 .4 0 .6-.2-.1.3-.3.5-.7.5zm-5.8-6.7c-.3.1-.6.1-.8 0l.3-.4c0 .1.2.2.4.1s.3-.3.3-.5c-.1-.2-.3-.2-.6-.2-.4 0-.8-.1-.9-.4-.2-.4.1-.8.6-1 .3-.1.5-.1.7-.1l-.2.5c0-.1-.2-.2-.4-.1-.3.1-.3.3-.3.5.1.2.3.2.6.2.4 0 .7.1.9.4.1.4 0 .8-.6 1zm-1.3.6c-.1 0-.2-.2-.4-.4-.3.1-.6.3-.8.4v.5l-.4.2-.1-2.7s.9.7 1.4 1.2c.5-.2.5-.4.4-.5.1.2.2.5-.1.8.1.1.2.1.3.1 0 0-.2.2-.3.4zM18.1 49c-.2-.4-.7-1.4-.9-1.7-.1-.1-.2-.2-.3-.1-.1.1-.2.1-.3.2-.2.1-.2.2-.3.3 0-.1.1-.5.1-.6.3-.2 1.5-.8 1.8-.9 0 .2-.1.4-.1.6h-.3s-.1.1-.3.2c.1 0 .1.1.2.2.1.2.4.8.6 1.1.1.2.2.2.2.2-.1.1-.3.3-.4.5zm-1.4.6c-.2 0-.6-.1-1.2-.5.1.1.2.3.2.4.1.2.2.2.2.2-.1.2-.3.4-.4.6-.2-.3-.8-1.3-.9-1.6-.1-.1-.2-.1-.3-.1 0-.2.1-.3.1-.5 0 0 .4-.2.7-.4.9-.5 1.7.5.9 1.2.3.2.5.2.7.2.4.1.6-.1.7-.2 0 .3-.2.8-.7.7zM14 51.3c-.2-.4-.7-1.3-.9-1.6-.1-.1-.2-.1-.3-.1 0-.2.1-.4.1-.5.5-.3.7-.4 1.2-.7 0 .2-.1.4-.1.6h-.3l-.4.2.2.2s.1.2.2.3c.3-.1.7-.4.8-.5 0 .2-.1.4-.1.6h-.3c-.1.2-.1.2-.2.3.1.2.3.4.4.6.2-.1.3-.2.5-.3 0 0 .2-.1.2-.2.2.1.3.2.5.2-.4.2-1.3.7-1.5.9zm-1 .5c-.2.1-.4.3-1 .6-.2-.3-.7-1.3-.9-1.6-.1-.1-.2-.1-.3-.1 0-.2.1-.3.1-.5 0 0 .4-.2.7-.4.8-.5 1.3.3 1.1.7.6 0 1.1.8.3 1.3zm-2 1.1c-.2-.4-.7-1.4-.8-1.7-.1-.1-.2-.2-.3-.1 0-.2.1-.3.1-.5.1 0 .4.1.6.4.1.2.4.8.5 1.1.1.2.2.2.2.2 0 .2-.1.4-.3.6zm-1.7.7c-.2-.4-.6-1.3-.7-1.7-.1-.1-.2-.2-.3-.1.1-.2.1-.3.2-.5.1 0 .4.1.6.4.1.2.4.9.6 1.3.1 0 .5-.2.5-.2s.2-.1.2-.2c.1.1.3.2.5.3-.3.1-1.4.6-1.6.7zm3.9-6.8c.3-.4 2.2-.6 3-1.1.3-.2.7-.1.9 0-.3.2-.7.4-1 .6 0 .1 0 .2-.1.4-.2-.3-.6 0-1 .3 0 .2.1.2-.2.5 0-.1-.1-.2-.2-.3-.3-.4-1.6-.1-1.4-.4zm46.2-.1c-1.7.8-3 2.4-3.2 2.8.4.2 1.4.7 1.5 1.5-.1-.6-.4-1.2-.8-1.5.8-1 1.5-1.6 2.6-2.1 1.8.5 1.7 2.6 1.3 3.2-1.5 1-2.4 2.6-3.5 3.3v-.1c.1-.1.1-.2.2-.3.3-.7.4-1.5.2-2.2-.8-.1-1.6-.3-2.3-.5-1.4-.4-3.6-1.7-5.9-3-.1-.1-.2-.1-.3-.2.3 0 .6 0 .9.1.4 0 1-.1 1.3-.1.3-.1.5-.2.7-.3.3-.1.5 0 .6 0-.1-.8 1.2-2.9 1.2-3.1 0-.2 0-.7-.1-1 0 0-.1-1.9.7-2.5.5.8 1.4 1.5 2.8 2.4.4.8 1.1 1.4 1.4 1.4-.2-.4-.5-.7-.5-1.4.6.8 1.1 1.8 2.1 2.3-.3-.3-.7-.8-.8-1.6.8 1.3 1.9 2 2.7 2.4-2.5-3-2.5-5-2.5-5-.4-.3-.8-.5-1.3-.8.2.5.4 1.2.6 2-.5-1-1-1.8-1.5-2.4.1.4.3 1.1.4 1.7-.5-.9-1-1.7-1.4-2.3.1.4.3 1 .4 1.7-.3-.8-.7-1.5-1.1-2-1.2-.4-.8.4-.8.4s-1.7-2.1-3.8-2.2c.6.3 1.8 1.2 1.7 1.1-.6-.2-1.2-.4-1.4-.4-.8 0-.1.8.4 1.8.6 1.3 1 2.3 1.2 2.9-.8 0-1-1.4-2.7-2.3.7.8 1.1 1.4 1.4 1.9.5 1 .5 2 .4 2.6-.2 1.5-1.3 1.5-2.2 1.2-1.1-.3-2.1-.5-2.8-.8-.7-.3-1.3.1-1.3.1l-.1.1c-2.1-1.1-4.2-2-5.4-1.9 1-1.6 1.6-3.1 1.9-4.5-.3 0-.5-.1-.5-.1-.4 1.8-1.3 3.7-2.6 5.5-.1.1-.1.2-.2.3l-.1.1c-.3.3-.5.7-.7.9-.4.4-.7.9-1.1 1.3-1.8 2-3.8 3.6-5.5 4.3-3.8-1.7-9.2-7.8-10.1-12.5l-.4.2c.3 1.4 1 2.9 1.9 4.5-1.3-.1-3.3.8-5.4 1.9l-.1-.1s-.6-.4-1.3-.1c-.7.4-1.7.5-2.8.8-.9.3-2 .3-2.2-1.2-.1-.6-.1-1.6.4-2.6.3-.6.7-1.2 1.4-1.9-1.7.9-1.9 2.3-2.7 2.3.2-.7.5-1.6 1.2-2.9.4-.9 1.2-1.8.4-1.8-.2 0-.8.2-1.4.4-.2.1 1.1-.9 1.7-1.2-2.2.1-3.8 2.2-3.8 2.2s.4-.9-.8-.4c-.4.6-.8 1.3-1.1 2 .1-.7.3-1.3.4-1.7-.4.6-1 1.4-1.4 2.3.1-.7.2-1.3.4-1.7-.5.5-1 1.3-1.5 2.4.2-.7.4-1.5.6-2-.5.3-.9.5-1.3.8 0 0 0 2-2.5 5 .8-.4 1.9-1.1 2.7-2.4-.4.8-.9 1.3-1.2 1.7 1-.5 1.5-1.5 2.1-2.3 0 .6-.3 1-.5 1.4.4 0 1-.6 1.4-1.4 1.4-.9 2.4-1.6 2.8-2.4 1.3 1.2.5 3.1.6 3.5.2.8 1 1.6 1.2 3.1.1 0 .2-.1.6 0 .2 0 .4.2.7.3.3.1.9.2 1.3.1.3 0 .6 0 .9-.1-.1.1-.2.1-.3.2-2.3 1.3-4.5 2.6-5.9 3-.6.2-1.5.4-2.2.4-.1.7-.1 1.5.2 2.2.1.1.1.2.2.3v.1c-1.1-.7-2-2.3-3.5-3.3-.4-.6-.5-2.7 1.3-3.2 1.1.5 1.8 1.1 2.6 2.1-.4.3-.7 1-.8 1.5.2-.8 1.1-1.3 1.5-1.5-.2-.4-1.5-2-3.2-2.8C1.6 46.8.9 50.2 2 51c.5.1.7.4 1.1.8 1.1 1.2 2.3 3.3 4.7 2.9H8.1c2.2-.5 4.8-2 7.6-3.6 3.4-2 6.9-4 9.9-4 .5.5.9 1 1.4 1.5 0 .6-.3 1.3-.9 2.2.5-.5 1.1-1.2 1.3-1.8 1.2 1.1 2.4 2 3.5 2.6-1.8 0-3.9-.1-5.7-.3-.9-.1-2.3-.8-1.2-1.4 1.1-.6 1-1.6.6-2.1.3.9-1 1.7-1.6 2-.3.1-.2.4-.1.7 0 .1.2.4.3.5.2.3.3.5.5.7.6.9 1.1 1.8 1.7 3 .8.5 4 .8 6.4.8 2.4 0 5.6-.4 6.4-.8.5-1.2 1.1-2.1 1.6-3 .2-.2.4-.5.6-.8.1-.2.2-.4.3-.5.1-.3.1-.6-.1-.7-.7-.3-2-1.1-1.7-2-.5.5-.5 1.5.6 2.1 1 .5-.4 1.2-1.2 1.3-1.8.2-3.8.3-5.7.3 1.1-.6 2.3-1.5 3.5-2.6.2.6.8 1.3 1.3 1.8-.6-.9-.8-1.6-.9-2.2.5-.5.9-1 1.4-1.5 3 0 6.5 2.1 9.9 4 2.8 1.6 5.4 3.1 7.6 3.6.1 0 .2 0 .3.1 2.4.4 3.5-1.7 4.6-2.9.3-.4.6-.6 1.1-.8.9-.7.2-4.1-2-4.2z"/><path fill="#FFF" d="M11.7 50.2c-.1.1-.2.1-.3.2l.2.2c0 .1.2.3.3.6 0-.2.1-.4.1-.4.6-.3.3-1-.3-.6zM15.3 48.1c-.1.1-.2.1-.3.2l.2.2c.1.1.2.4.4.7 0-.1.1-.3.1-.4.5-.3.1-1-.4-.7z"/><path fill="#FFF" d="M12.2 51c-.1 0-.2.1-.3.1.2.3.3.6.3.6.2-.1.3-.1.4-.2.6-.2.2-.8-.4-.5zM19.2 47.4c.1-.1.3-.1.5-.2-.2-.2-.4-.3-.5-.4v.6zM53.4 51.9c-.1.1-.3.3-.5.4.1.1.3.1.5.2v-.6zM44.5 46.2c-.1-.1-.2-.1-.3-.2 0 .1 0 .2-.1.3-.1.1-.2.5-.4.8.1 0 .3-.1.4-.2.5.5 1-.4.4-.7zM41.5 46.4c.1 0 .3.1.5.2v-.7l-.5.5zM29.6 52.7h-.4c0 .1.1.2.1.3v.9l.3-.3c.6 0 .6-.9 0-.9zM33.6 52.7h-.4c0 .1.1.2.1.3v.8l.3-.3c.6 0 .6-.8 0-.8zM35.9 8.9h-.7V7.7l.3-.7.3.6c.1 0 .1.5.1 1.3zm0 1.4h-.7V9.2h.7v1.1zm-1.4.4h-5.9v-.4h5.8v.4h.1zm-7.2-1.8V7.7l.4-.7.3.6v1.2h-.7v.1zm0 1.4V9.2h.7v1.1h-.7zm8.9-3.1l-.7-3.7-.7 3.7-.3-.2v2.2h-.2c-.3-.7-1-2-1-2s0 .4-.3.5c-.1.1-.5-.1-.8-.3.1.1.5 1.3.8 1.8h-1.4c-.1-.3 0-.9.1-1.3.2-.1.4-.3.4-.3s0-1.2-.8-1.6c0 .6 0 1.1.1 1.4 0 .9-.1 1.4-.3 1.8h-.3c-.1-.1-.1-.2-.1-.3 0-.3 0-.7.1-1 .2-.1.4-.2.5-.4-.1-.3-.1-.7-.2-1-.3-.1-.4-.2-.8-.4 0 .6.1 1 .1 1.3-.1.7-.2 1.4-.5 1.7h-1.2V6.9l-.4.2-.7-3.7-.6 3.8-.4-.2v6.7c.2-.1.4-.2.7-.3v-2.7h.7v2.5c.5-.1 1.1-.2 1.7-.3v-1.1c0-.4.6-.7.6-.7s.6.3.6.7v1H32.2v-1c0-.4.6-.7.6-.7s.6.3.6.7v1.1c.6.1 1.1.2 1.7.3v-2.5h.7v2.7c.3.1.5.2.7.3V7l-.3.2z"/><path fill="#FFF" d="M35.3 3.7c0 .2.1.3.3.3.2 0 .3-.1.3-.3 0-.2-.1-.3-.3-.3-.2 0-.3.1-.3.3zM13.7 33.8c.8-.7 1.1-1.9 1.1-3.8.5 1.6.4 3.1-1.1 3.8zm-3 1.8c1.9-1 2.2-3.1 2.6-4.9.1 1.6.5 4.4-2.6 4.9zm-2.5.9c.9-.5 2.6-1.5 3.4-5.3-.2 4.1-1.7 5.3-3.4 5.3zM2.6 40c1.5-3 5.4-4.3 6.9-7.9-.3 4.6-3.6 4.8-6.9 7.9zm13.7-15.2c-2.4-1.8-5.8-2.9-6.5-5.3-.7-2.2 1.9-3.1 3.6-2.8 0-.2.1-.4.2-.5.5 1.7 2.6 2.2 4.3 1.4.4-.7-.2-1-.7-1.2-.2-.1-1.3.4-1.5-.6-.5 0-1-.2-1.1-.4.4 0 1.3-.2 1.9 0 .7.1.7.3.9.6.1.3.3-.1.8-.3-.5-.5-1.9-1.6-4.7-.5-3.3 0-4.9 1.4-5.2 2.9-1 4.4 6 6.5 6.7 9.1C6.7 27.1.7 37.8.6 43.5c1.7-2.9 6.3-5.8 7.7-6.4.8-.1 3.9-1.2 5.7-2.8 1.5-.5 2.4-2.8 1.5-4.7 1.8 1.1.9 3.7.9 3.7s.1-.1.3-.2c.9-.8 1.3-2.2.4-3.7.8.6 1.1 1.2 1.2 1.7.1-.7.1-1.6-.7-2.7.7.3 1 .7 1.2 1.1v-.1c0-.7-.3-1.7-1.1-2.3 1.8.4 1.8 3 1.4 3.9-.6 3-3.6 6.6-4.1 7.4.8-.6 1.7-1.7 2.2-2.3.5-.7 1.8-2.5 2.4-5.2.4-1.4 1.2-3.9-3.3-6.1zM53.7 32.2c1.5 3.6 5.4 4.9 6.9 7.9-3.3-3.2-6.6-3.4-6.9-7.9zm-2.2-1c.9 3.8 2.5 4.8 3.4 5.3-1.6 0-3.1-1.2-3.4-5.3zm-1.6-.6c.4 1.8.6 4 2.6 4.9-3.1-.4-2.7-3.2-2.6-4.9zm-1.5-.6c.1 1.9.3 3.1 1.1 3.8-1.5-.7-1.6-2.2-1.1-3.8zm-.2-2.8c.7-2.6 7.7-4.7 6.7-9.1-.3-1.5-1.9-2.8-5.2-2.9-2.8-1.1-4.2 0-4.7.5.5.1.7.5.8.3.1-.3.2-.5.9-.6.6-.1 1.4.1 1.9 0-.2.2-.7.3-1.1.4-.2 1-1.3.6-1.5.6-.5.2-1.1.4-.7 1.2 1.7.8 3.8.3 4.3-1.4.1.1.2.3.2.5 1.7-.3 4.3.6 3.6 2.8-.7 2.3-4.1 3.4-6.5 5.3-4.4 2.3-3.7 4.8-3.2 6.2.5 2.6 1.9 4.5 2.4 5.2.5.7 1.4 1.7 2.2 2.3-.5-.9-3.5-4.5-4.1-7.4-.4-.9-.4-3.5 1.4-3.9-.9.6-1.1 1.6-1.1 2.3v.1c.2-.4.5-.8 1.2-1.1-.8 1.1-.8 2-.7 2.7.1-.5.4-1.1 1.2-1.7-.9 1.5-.5 2.9.4 3.7.2.1.3.2.3.2s-.9-2.6.9-3.7c-1 1.9 0 4.2 1.5 4.7 1.8 1.6 4.9 2.8 5.7 2.8 1.4.6 6 3.6 7.7 6.4-.2-5.8-6.2-16.5-14.5-16.4zM76.1 10.2c0 3.2 1.6 4.7 5.1 4.7 3.4 0 4.9-1.4 4.9-4.3V2.9c0-1.1-.4-1.6-1.4-1.8-.5-.1-.6-.2-.6-.4s.1-.3.4-.3c.3 0 1.2.1 2.1.1.8 0 1.6-.1 1.9-.1.3 0 .5.1.5.3 0 .2-.2.4-.8.6-.5.2-1 .4-1 1.6v7.6c0 3.7-2.4 5.7-6.9 5.7s-6.9-1.8-6.9-5.1V2.7c0-.9-.5-1.4-1.5-1.6-.5-.1-.6-.2-.6-.5s.3-.3.9-.3c.5 0 1.8.1 2.6.1 1 0 2-.1 2.6-.1.4 0 .8 0 .8.4 0 .2-.1.3-.6.4-1.1.2-1.5.6-1.5 1.7v7.4zM94.9 2.5c-.9-1.1-1.3-1.4-2-1.5-.3-.1-.4-.1-.4-.4 0-.2.1-.3.3-.3.2 0 2 .1 2.1.1.2 0 1.1-.1 1.3-.1.3 0 .4.1.7.4l10.5 11.1V3.2c0-1.3-.6-2-1.9-2.2-.3 0-.6-.1-.6-.3 0-.3.1-.3.5-.3.3 0 2 .1 2.5.1.4 0 2-.1 2.3-.1.3 0 .4.1.4.3 0 .2-.1.2-.5.3-1.1.2-1.6.9-1.6 2.4v12.3c0 .4-.1.5-.3.5-.1 0-.3-.1-.4-.1L95.9 3.5v9.1c0 1.8.5 2.5 1.9 2.7.4.1.5.1.5.4 0 .2-.2.3-.8.3-.5 0-1.6-.1-2.3-.1-.6 0-2 .1-2.2.1-.2 0-.2-.1-.2-.3 0-.2.1-.3.5-.4 1.3-.2 1.7-1 1.7-3.1V2.5h-.1zM119.4 13c0 1.5.4 2 1.6 2.2.5.1.6.2.6.4 0 .4-.4.4-1 .4s-1.6-.1-2.5-.1c-.9 0-2.4.1-2.9.1s-.7 0-.7-.4c0-.1.1-.2.5-.3 1.2-.2 1.7-.8 1.7-2.3V3.1c0-1.3-.6-1.9-1.9-2.1-.4-.1-.5-.1-.5-.4 0-.2.1-.3.5-.3.2 0 2.2.1 3.1.1 1 0 2.4-.1 2.6-.1.4 0 .7 0 .7.3 0 .2-.1.3-.5.4-1.1.3-1.5 1-1.5 2.2V13h.2zM127.6 2.4c-.4-.8-.9-1.2-1.7-1.4-.4-.1-.5-.2-.5-.4s.2-.3.6-.3c.2 0 1.9.1 2.8.1.8 0 2.1-.1 2.7-.1.2 0 .5 0 .5.3 0 .2-.1.3-.5.4-.4.1-1.1.2-1.1.9 0 .3.1.8.4 1.3l4.5 9.3 4-8.6c.5-1.1.7-1.6.7-2 0-.5-.2-.7-.8-.9-.4-.1-.5-.2-.5-.4s.2-.3.5-.3 1.4.1 2 .1c.6 0 1.5-.1 1.8-.1.3 0 .4.1.4.2 0 .2-.1.3-.6.4-1.1.2-1.4.6-2.1 2.2l-5.8 12.6c-.1.2-.2.5-.4.5s-.3-.2-.6-.8l-6.3-13zM160.3 16l-6.6-.1-6 .1c-.6 0-.6-.2-.6-.3 0-.2.2-.3.8-.4 1.1-.2 1.4-.6 1.4-1.8V3c0-1.2-.2-1.6-1.5-1.8-.5-.1-.6-.2-.6-.4 0-.1.1-.3.5-.3h9.7l2.5-.1 1.1 4c.1.1.1.2.1.3 0 .2-.1.3-.3.3-.2 0-.3-.1-.5-.3-1.2-2-3.2-3.3-5.5-3.3h-2.7V7h4.5c1.1 0 1.5-.3 1.7-1.3.1-.6.2-.8.5-.8.2 0 .4.2.4.6 0 .2-.1 1.5-.1 1.8 0 .3.1 1.8.1 2.2 0 .3-.1.5-.3.5-.2 0-.4-.2-.5-.7-.3-1.2-.7-1.5-2.5-1.5h-3.8v5.9c0 1 .7 1.4 2.4 1.4 2.9 0 5.2-1.2 6.7-3.4.3-.4.5-.7.7-.7.2 0 .3.1.3.3 0 .1 0 .3-.1.5l-1.8 4.2zM171.1 8.4h.9c2.4 0 3.5-1.1 3.5-3.5S174.3 1 172.4 1c-1 0-1.4.3-1.4 1v6.4h.1zm2.9 2.3c-1-1.6-1.4-1.7-2.9-1.7v3.9c0 1.4.5 2.1 1.8 2.4.4.1.6.2.6.4s-.1.3-.4.3c-.4 0-2.5-.1-3.2-.1-.6 0-2.2.1-2.8.1-.5 0-.6 0-.6-.3 0-.2.1-.3.5-.4 1.1-.2 1.6-.9 1.6-2.3V2.7c0-1.1-.4-1.6-1.6-1.7-.6-.1-.7-.1-.7-.4 0-.2.3-.2.7-.2.5 0 2.2.1 2.9.1.7 0 3-.1 3.3-.1 3.1 0 5.1 1.6 5.1 4.2 0 2.3-1.6 3.5-2.4 4.2.6.8 1 1.3 1.7 2.3l.3.5c2.2 3.2 2.9 3.7 4.1 3.8.4 0 .4.1.4.3 0 .4-.7.4-1 .4-.4 0-1.2-.1-1.5-.1-.4 0-1 .1-1.3.1-.8 0-1.2-.4-2.4-2.2l-2.2-3.2zM196.2 5c.1.4.1.6.1.8 0 .3-.1.5-.3.5-.3 0-.4-.2-.6-.9-.8-2.8-2.3-4.4-4.3-4.4-1.4 0-2.4.9-2.4 2.1 0 1.6 1.4 2.4 3.4 3.4 3.5 1.7 4.8 2.7 4.8 5.1 0 2.8-2 4.5-5.2 4.5-.5 0-2.6-.2-3-.2-.8 0-.9.2-1.2.2-.2 0-.3-.1-.3-.6 0-1.2-.2-2.3-.5-4.1-.1-.3-.2-.9-.2-1.2 0-.2.1-.4.3-.4.3 0 .4.2.6.9 1.2 4.1 4.2 4.4 5.1 4.4 1.6 0 2.6-.9 2.6-2.4 0-1.9-1.9-2.8-3.8-3.7-2-1-4.4-2.2-4.4-4.9 0-2.2 1.9-3.9 4.3-3.9.6 0 1.3.1 2.5.3.6.1.9.2 1.1.2.4 0 .5-.1.7-.4.1-.2.2-.2.3-.2.2 0 .4.1.3 1.1 0 1.3.1 2.6.2 3.3l-.1.5zM206.5 13c0 1.5.4 2 1.6 2.2.5.1.6.2.6.4 0 .4-.4.4-1 .4s-1.6-.1-2.5-.1c-.9 0-2.4.1-2.9.1s-.7 0-.7-.4c0-.1.1-.2.5-.3 1.2-.2 1.7-.8 1.7-2.3V3.1c0-1.3-.6-1.9-1.9-2.1-.4-.1-.5-.1-.5-.4 0-.2.1-.3.5-.3.2 0 2.2.1 3.1.1 1 0 2.4-.1 2.6-.1.4 0 .7 0 .7.3 0 .2-.1.3-.5.4-1.1.3-1.5 1-1.5 2.2V13h.2zM213.9.5h13.9l1 4.1c0 .2 0 .4-.2.4s-.4-.2-.8-.8c-1.1-1.5-2.6-2.8-4.5-2.8h-1.1v12.1c0 1 .5 1.5 1.5 1.7.4.1.6.2.6.5s-.4.4-1 .4-1.7-.1-2.5-.1-2.5.1-2.9.1c-.4 0-.7-.2-.7-.4s.2-.4.6-.4c1.1-.2 1.6-.8 1.6-1.6V1.4h-.8c-.8 0-3 0-5 3.1-.2.4-.4.5-.5.5-.2 0-.2-.1-.2-.3 0-.1.1-.3.1-.5l.9-3.7zM239.3 8.7l-4.6-6.6c-.5-.6-.9-1-1.5-1.1-.3-.1-.4-.1-.4-.3 0-.4.4-.4.9-.4s1.6.1 2.4.1c.8 0 1.9-.1 2.3-.1.4 0 .6.1.6.4 0 .2-.1.2-.5.3-.6.1-.8.3-.8.7 0 .2.1.5.2.7l3.3 4.8 2.9-4.4c.3-.4.4-.8.4-1.1 0-.5-.3-.7-.9-.8-.3 0-.4-.1-.4-.3 0-.2.3-.4.7-.4.2 0 1 .1 1.5.1.6 0 1.6-.1 1.9-.1.4 0 .6.1.6.2 0 .2-.1.3-.5.4-.8.2-1.4.6-2 1.6L242 8.2v5.2c0 1.1.4 1.6 1.5 1.8.6.1.7.2.7.5 0 .2-.2.3-.7.3-.4 0-2.1-.1-2.7-.1-.6 0-2.2.1-2.7.1s-.8 0-.8-.3c0-.2.2-.3.7-.4 1.1-.2 1.3-.5 1.3-1.6v-5zM263 7.7c0 4.8 2.1 7.8 5.5 7.8 2.6 0 5.3-2 5.3-7.1 0-4.5-2.3-7.5-5.6-7.5-3.8 0-5.2 3.2-5.2 6.8zm13.7.2c0 5.1-3.4 8.4-8.4 8.4-6.6 0-8-5-8-7.7 0-4.9 3.1-8.6 8.2-8.6 4.9 0 8.2 3.4 8.2 7.9zM285.9 7.7v5c0 1.8.5 2.5 1.9 2.5.5 0 .6.1.6.3 0 .3-.2.5-.6.5-.2 0-2.4-.1-2.8-.1-.5 0-2.7.1-3.2.1-.4 0-.6-.1-.6-.4 0-.2.1-.3.4-.3.7-.1 1.8-.2 1.8-2v-9c0-2.1-.4-2.9-1.6-3.1-.6-.1-.8-.2-.8-.4 0-.3.2-.3.7-.3h9.6l2.3-.1 1 4.1c.1.2.1.6-.2.6-.2 0-.2-.1-.5-.5-.8-1.4-2.1-3.2-6.4-3.2-.5 0-.9 0-1.7.1-.1.4-.1 1-.1 2.1V7h2.9c2.6 0 3-.1 3.1-1.2.1-.5.1-.6.4-.6.4 0 .4.2.4 1.2 0 2.2.1 3 .1 3.3 0 .3-.1.6-.4.6-.2 0-.4-.3-.5-1-.2-1.1-.4-1.4-3.3-1.4h-2.5v-.2zM81.5 50c0 2.8.8 3.5 3.9 3.5 2.8 0 9.3 0 13.8-6.9.5-.7.7-1 1.2-1 .3 0 .5.3.5.6s-.3 1.1-.7 2.2c-1.1 2.5-1.8 4.3-2.3 6.9l-12.6-.2-11.8.2c-1.2 0-1.5-.1-1.5-.6s.4-.5 1.2-.7c3.3-.6 3.3-1.8 3.3-7.7V29.5c0-2.5-.5-3.2-2.8-3.4-1.3-.1-1.7-.3-1.7-.8 0-.4.4-.7 1.1-.7.6 0 4.5.2 5.4.2 2.1 0 5.6-.2 6.3-.2.5 0 1 0 1 .6 0 .5-.3.7-1.4.8-1.2.1-2.8.3-2.8 3v21h-.1zM113.4 49.4c0 2.9.7 3.9 3.1 4.4 1 .2 1.3.4 1.3.8 0 .7-.8.7-2 .7s-3.1-.2-4.8-.2c-1.7 0-4.6.2-5.6.2-.9 0-1.4-.1-1.4-.7 0-.3.3-.4 1.1-.6 2.4-.4 3.3-1.6 3.3-4.6V30c0-2.5-1.2-3.8-3.7-4.1-.7-.1-1.1-.2-1.1-.7 0-.4.3-.6 1.1-.6.5 0 4.4.2 6.2.2 1.9 0 4.7-.2 5.2-.2.8 0 1.4 0 1.4.5 0 .4-.2.5-.9.7-2.1.6-3 2-3 4.3v19.3h-.2zM125.2 28.8c-1.8-2.1-2.5-2.7-4-2.9-.6-.2-.7-.3-.7-.7 0-.4.2-.6.6-.6.3 0 3.9.2 4.2.2.3 0 2.2-.2 2.6-.2.5 0 .8.1 1.4.7L149.8 47V30c0-2.6-1.2-3.9-3.7-4.2-.6-.1-1.2-.2-1.2-.6 0-.5.3-.6.9-.6s4 .2 4.8.2c.8 0 4-.2 4.5-.2s.8.1.8.5-.2.5-.9.6c-2.2.4-3.1 1.8-3.1 4.7v24.1c0 .8-.1 1.1-.6 1.1-.3 0-.5-.1-.7-.2l-23.4-24.7v17.9c0 3.5 1 4.9 3.7 5.3.8.1 1 .2 1 .7 0 .5-.3.6-1.5.6-.9 0-3.1-.2-4.5-.2-1.3 0-3.9.2-4.4.2-.3 0-.5-.2-.5-.5 0-.4.2-.5.9-.7 2.5-.4 3.3-1.9 3.3-6.1V28.8zM173.7 23.8c2.5 0 5.5.6 8.3 1.7.6.3 1.2.4 1.3.4.3 0 .5-.2 1-.6.4-.4.6-.5.9-.5.4 0 .6.5.6 2.9 0 1.9.1 4.3.3 6 .1.4.2 1.4.2 1.8 0 .5-.1.8-.4.8-.4 0-.6-.4-.9-1.5-2.2-8.5-9.2-9.4-10.9-9.4-6 0-9.7 5.3-9.7 14 0 9 4.5 14.7 11.5 14.7 3.4 0 7.2-1.5 10-4.1.3-.3.4-.4.6-.4.2 0 .3.2.3.5 0 .6-4.3 5.8-12.1 5.8-9.7 0-15.8-6.3-15.8-16.3.1-9.4 6-15.8 14.8-15.8zM197.2 39c0 9.4 4.2 15.3 10.8 15.3 5.1 0 10.5-3.9 10.5-14 0-8.9-4.5-14.8-11.1-14.8-7.6.2-10.2 6.4-10.2 13.5zm26.8.4c0 9.9-6.6 16.4-16.5 16.4-12.9 0-15.7-9.8-15.7-15.1 0-9.6 6.1-16.8 16.1-16.8 9.6 0 16.1 6.7 16.1 15.5zM238.3 50c0 2.8.8 3.5 3.9 3.5 2.8 0 9.3 0 13.8-6.9.5-.7.7-1 1.2-1 .3 0 .5.3.5.6s-.3 1.1-.7 2.2c-1.1 2.5-1.8 4.3-2.3 6.9l-12.7-.2-11.8.2c-1.2 0-1.5-.1-1.5-.6s.4-.5 1.2-.7c3.3-.6 3.3-1.8 3.3-7.7V29.5c0-2.5-.5-3.2-2.8-3.4-1.2-.1-1.5-.3-1.5-.8 0-.4.4-.7 1.1-.7.6 0 4.5.2 5.4.2 2.1 0 5.6-.2 6.3-.2.5 0 1 0 1 .6 0 .5-.3.7-1.4.8-1.2.1-2.8.3-2.8 3v21h-.2zM264.3 28.8c-1.8-2.1-2.5-2.7-4-2.9-.6-.2-.7-.3-.7-.7 0-.4.2-.6.6-.6.3 0 3.9.2 4.2.2s2.2-.2 2.6-.2c.5 0 .8.1 1.4.7L288.9 47V30c0-2.6-1.2-3.9-3.7-4.2-.6-.1-1.2-.2-1.2-.6 0-.5.3-.6.9-.6.6 0 4 .2 4.8.2.8 0 4-.2 4.5-.2s.8.1.8.5-.2.5-.9.6c-2.2.4-3.1 1.8-3.1 4.7v24.1c0 .8-.1 1.1-.6 1.1-.3 0-.5-.1-.7-.2l-23.4-24.7v17.9c0 3.5 1 4.9 3.7 5.3.8.1 1 .2 1 .7 0 .5-.3.6-1.5.6-.9 0-3.1-.2-4.5-.2-1.3 0-3.9.2-4.4.2-.3 0-.5-.2-.5-.5 0-.4.2-.5.9-.7 2.5-.4 3.3-1.9 3.3-6.1V28.8z"/></svg>